<?xml version="1.0" encoding="UTF-8"?>
<svg id="Layer_2" data-name="Layer 2" xmlns="http://www.w3.org/2000/svg" viewBox="0 0 389.21 499.44">
  <defs>
    <style>
      .cls-1 {
        stroke-width: 10px;
        stroke: #fff;
        filter: drop-shadow(0 0 10px #fff);
      }
    </style>
  </defs>
  <g id="katman_1" data-name="katman 1">
    <path class="cls-1" d="m283.15.02c1.04,1.95.57,3.81.23,5.6-3.71,19.46-6.76,39.02-9.19,58.68-1.13,9.15-1.11,9.02,7.31,12.94,2.67,1.24,4.23.86,6.18-1.25,7.73-8.32,15.63-16.47,23.49-24.66.78-.81,1.43-1.81,2.78-2.34.7,1.07.38,2.23.24,3.28-1.45,11.02-2.08,22.12-3.84,33.1-.76,4.75-.71,4.71,3.52,6.89,14.1,7.3,27.88,15,40.6,24.69,8,6.1,15.74,12.21,21.58,20.42,11.01,15.44,14.95,32.61,12.41,51.37-1.61,11.93-2.85,23.9-5.04,35.76-1.23,6.66-.91,13.62-1.21,20.45-.08,1.86-.12,3.73-.67,5.5-1.08,3.46-3.2,5.84-6.98,6.43-4.22.66-8.43,1.39-12.77,2.11-1.22,4.49-1.02,9.04-1.42,13.49-1.12,12.58-2.07,25.18-2.9,37.78-.17,2.59-1.06,3.49-3.56,3.33-1.65-.1-3.19-.36-4.71-1.01-4.04-1.71-8.12-3.34-12.35-5.08-1.36,2.56-1.19,5.3-1.64,7.85-1.36,7.75-3.52,9.79-11.37,10.22-.33.02-.65.16-1.14.28.44,1.48.74,2.97,1.33,4.34,1.42,3.28.45,5.89-2.12,8.04-3.38,2.82-6.76,5.65-10.26,8.31-2.02,1.53-3.15,2.99-2.58,5.8.69,3.4.47,6.92-.39,10.35-1.85,7.36-7.03,11.02-15.68,10.7-8.1-.3-15.45-2.86-21.77-8.05-7.79-6.4-14.04-6.74-23.07-1.06.37,3.03,2.36,5.62,3,8.77-2.65,1.94-5.32,3.76-7.85,5.76-2.08,1.65-4.03,3.48-5.99,5.29-3.74,3.47-6.14,7.52-5.52,12.88.1.89-.12,1.82-.18,2.67-1.25,1.03-2.87.37-4.02,1.21-.7,1.8.68,2.89,1.4,4.08,9.77,16.03,19.03,32.34,27.4,49.14,6.77,13.59,12.96,27.43,17.84,41.83.36,1.07.89,2.12.74,3.49-1.21-.39-1.38-1.49-1.82-2.29-21.63-38.85-51.3-69.63-91.07-90.05-25.13-12.9-51.97-19.4-80.21-20.13-33.97-.87-66.46,6.29-98.1,18.09-1.16.43-2.25,1.18-3.72,1.04-.29-1.07.5-1.68,1.01-2.34,10.07-13.32,20.35-26.42,31.95-38.5,6.81-7.09,12.66-15.09,19.54-22.15,3.32-3.4,6.82-6.57,10.52-9.58,3.01-2.44,4.46-6.15,4.73-10.06.83-12.26,2.01-24.48,4.76-36.49,1.45-6.33,3.23-12.56,6.54-18.25,2.72-4.68,6.25-7.11,12.14-6.71,10.62.73,21.01,1.85,30.64,7.73,1.86-4.33,3.71-8.52,5.47-12.76,6.44-15.5,12.98-30.96,19.23-46.54,3.26-8.11,3.07-16.8,3.01-25.36-.08-12.32.62-24.55,3.51-36.57,1.73-7.18,5.37-13.5,9.15-19.77,7.74-12.85,16.21-25.12,27.24-35.43,2.63-2.46,5.36-4.81,8.41-6.72,17.75-11.1,33.02-24.87,46.02-41.35,11.48-14.55,23.63-28.58,35.5-42.81.91-1.09,1.57-2.66,3.71-2.44Zm38.32,227.31c-.04.75-.15,1.03-.06,1.16,5.85,7.9,11.72,15.79,17.57,23.68.43.59.92,1.08,1.67,1.08,3.95.02,7.9,0,11.86,0,.05-.29.11-.58.16-.88-9.26-9.6-19.33-18.2-31.2-25.05Z"/>
  </g>
</svg>